<?xml version="1.0" encoding="UTF-8" standalone="no"?>
<svg
   xmlns:dc="http://purl.org/dc/elements/1.1/"
   xmlns:cc="http://creativecommons.org/ns#"
   xmlns:rdf="http://www.w3.org/1999/02/22-rdf-syntax-ns#"
   xmlns:svg="http://www.w3.org/2000/svg"
   xmlns="http://www.w3.org/2000/svg"
   xmlns:sodipodi="http://sodipodi.sourceforge.net/DTD/sodipodi-0.dtd"
   xmlns:inkscape="http://www.inkscape.org/namespaces/inkscape"
   width="512px"
   height="512px"
   enable-background="new 0 0 512 512"
   version="1.1"
   viewBox="0 0 512 512"
   id="svg14"
   sodipodi:docname="default-icon.svg"
   inkscape:version="0.92.4 (5da689c313, 2019-01-14)">
  <metadata
     id="metadata20">
    <rdf:RDF>
      <cc:Work
         rdf:about="">
        <dc:format>image/svg+xml</dc:format>
        <dc:type
           rdf:resource="http://purl.org/dc/dcmitype/StillImage" />
        <dc:title></dc:title>
      </cc:Work>
    </rdf:RDF>
  </metadata>
  <defs
     id="defs18" />
  <sodipodi:namedview
     pagecolor="#ffffff"
     bordercolor="#666666"
     borderopacity="1"
     objecttolerance="10"
     gridtolerance="10"
     guidetolerance="10"
     inkscape:pageopacity="0"
     inkscape:pageshadow="2"
     inkscape:window-width="640"
     inkscape:window-height="480"
     id="namedview16"
     showgrid="false"
     inkscape:zoom="0.4609375"
     inkscape:cx="218.0339"
     inkscape:cy="256"
     inkscape:window-x="1994"
     inkscape:window-y="31"
     inkscape:window-maximized="0"
     inkscape:current-layer="svg14" />
  <g
     id="g6"
     style="fill:#ffffff"
     transform="matrix(1.2190352,0,0,1.2190352,-56.073012,-56.073012)">
    <g
       id="g4"
       style="fill:#ffffff">
      <path
         d="M 256,48 C 141.1,48 48,141.1 48,256 48,370.9 141.1,464 256,464 370.9,464 464,370.9 464,256 464,141.1 370.9,48 256,48 Z m 0,398.7 C 150.9,446.7 65.3,361.2 65.3,256 65.3,150.9 150.8,65.3 256,65.3 c 105.1,0 190.7,85.5 190.7,190.7 0,105.1 -85.6,190.7 -190.7,190.7 z"
         id="path2"
         style="fill:#ffffff"
         inkscape:connector-curvature="0" />
    </g>
  </g>
  <g
     id="g12"
     style="fill:#ffffff"
     transform="matrix(1.2190352,0,0,1.2190352,-56.073012,-56.073012)">
    <g
       id="g10"
       style="fill:#ffffff">
      <path
         d="m 256,96 c -88.4,0 -160,71.6 -160,160 0,88.4 71.6,160 160,160 88.4,0 160,-71.6 160,-160 C 416,167.6 344.4,96 256,96 Z"
         id="path8"
         style="fill:#ffffff"
         inkscape:connector-curvature="0" />
    </g>
  </g>
</svg>
