<svg enable-background="new 0 0 1000 1000" version="1.1" viewBox="0 0 1e3 1e3" xmlns="http://www.w3.org/2000/svg">
	<g fill="#fff">
		<path d="m420.2 282h-245.3c-23.5 0-42.5 19-42.5 42.5s19 42.5 42.5 42.5h245.4c23.5 0 42.5-19 42.5-42.5-0.1-23.5-19.1-42.5-42.6-42.5z"/>
		<path d="m288.1 438.1h-113.2c-23.5 0-42.5 19-42.5 42.5s19 42.5 42.5 42.5h113.3c23.5 0 42.5-19 42.5-42.5-0.1-23.4-19.1-42.5-42.6-42.5z"/>
		<path d="m812.2 780.1c0 18.5 15 33.4 33.4 33.4 18.5 0 33.4-15 33.4-33.4s-15-33.4-33.4-33.4-33.4 15-33.4 33.4z"/>
		<path d="m551.3 425.7c2.2 0.5 4.5 0.8 6.9 0.8h210.3c16.1 0 29.2-13.1 29.2-29.2s-13.1-29.2-29.2-29.2h-210.3c-3.2 0-6.2 0.5-9 1.4l-0.8-21.4c0.1-0.6 0.1-1.2 0.1-1.9-0.3-8.1-7.1-14.5-15.3-14.2-4.6 0.2-8.7 2.4-11.2 5.9l-0.5 0.5-48.8 49.8c-5.3 5.7-5 14.7 0.7 20l52.6 46c0.7 0.7 1.5 1.3 2.3 1.8 2.6 2 6 3.2 9.6 3.1 8.2-0.3 14.6-7.2 14.3-15.3 0-0.6-0.1-1.2-0.2-1.8l-0.7-16.3z"/>
		<path d="m604.4 606.5c0 18.5 15 33.4 33.4 33.4s33.4-15 33.4-33.4-15-33.4-33.4-33.4-33.4 14.9-33.4 33.4z"/>
		<path d="m899.5 233.7h-119.2v-68.2c0-45.5-28.8-82.4-90.5-82.4h-589.3c-61.7 0-90.5 36.9-90.5 82.4v502.5c0 45.5 28.8 82.4 90.5 82.4h119.3v84c0 45.5 28.8 82.4 90.5 82.4h589.4c61.6 0 90.5-36.9 90.5-82.4v-518.3c-0.2-45.5-29-82.4-90.7-82.4zm21.3 189.7-1.3-0.2v137.6h1.3v247.5c0 3.7-0.6 7.3-1.6 10.7-2.1 14.5-14.6 25.7-29.6 25.7h-573.6c-16.5 0-30-13.4-30-30v-60.6-3.6h403.8c61.6 0 90.5-36.9 90.5-82.4v-66c-2.5-15.9-16.2-28.1-32.9-28.1-16.2 0-29.7 11.5-32.8 26.7l-0.3 1.4c-0.3 1.7-0.4 3.5-0.4 5.3v6.8 34.2c0 16.5-13.4 30-30 30h-573.4c-15.1 0-27.6-11.2-29.6-25.7-1.1-3.4-1.6-7-1.6-10.7v-247.7h1.3v-137.5l-1.3 0.2v-65.3c0-4.4 0.8-8.6 2.2-12.5 2.9-11.3 12.2-20 23.7-22 3.2-0.9 6.5-1.4 10-1.4h559.9l-7.1-0.1h16c16.5 0 30 14.5 30 31v47.1h-48.2c-1.4-0.2-2.7-0.2-4.1-0.2-20.1 0-36.4 16.3-36.4 36.4 0 19.6 15.5 35.6 35 36.4v0.1h224.7c3.5 0 6.8 0.5 10 1.4 11.6 2.1 20.9 10.8 23.7 22 1.5 3.9 2.2 24 2.2 28.4l-0.1 65.1z"/>
		<path d="m832.9 434.7-0.5-0.5c-2.6-3.4-6.6-5.7-11.2-5.9-8.1-0.3-15 6.1-15.3 14.2 0 0.6 0 1.2 0.1 1.9l-0.8 21.4c-2.8-0.9-5.9-1.4-9-1.4h-210.4c-16.1 0-29.2 13.1-29.2 29.2s13.1 29.2 29.2 29.2h210.3c2.4 0 4.7-0.3 6.9-0.8l-0.6 16.2c-0.1 0.6-0.2 1.2-0.2 1.8-0.3 8.2 6.1 15 14.3 15.3 3.6 0.1 6.9-1 9.6-3.1 0.8-0.5 1.6-1.1 2.3-1.7l52.6-46c5.7-5.3 6.1-14.3 0.7-20l-48.8-49.8z"/>
	</g>
</svg>
