<?xml version="1.0" encoding="UTF-8"?>
<svg enable-background="new 0 0 511.999 511.999" version="1.1" viewBox="0 0 512 512" xml:space="preserve" xmlns="http://www.w3.org/2000/svg" xmlns:cc="http://creativecommons.org/ns#" xmlns:dc="http://purl.org/dc/elements/1.1/" xmlns:rdf="http://www.w3.org/1999/02/22-rdf-syntax-ns#"><metadata><rdf:RDF><cc:Work rdf:about=""><dc:format>image/svg+xml</dc:format><dc:type rdf:resource="http://purl.org/dc/dcmitype/StillImage"/><dc:title/></cc:Work></rdf:RDF></metadata>
<g fill="#fff">
	<g fill="#fff">
		<g fill="#fff">
			<path d="m493.26 5.091c-1.772-3.146-5.102-5.091-8.712-5.091h-0.022l-175.18 0.399c-3.429 8e-3 -6.613 1.771-8.439 4.672l-107.29 170.4c-1.427 2.267-1.885 5.011-1.272 7.618s2.247 4.86 4.535 6.252l8.241 5.017-186.19 302.4c-2.593 4.211-1.718 9.686 2.06 12.879 1.865 1.577 4.161 2.363 6.456 2.363 2.352 0 4.703-0.827 6.587-2.476l248.11-217.17c2.805-2.455 4.012-6.266 3.131-9.888l-11.226-46.153 53.08 32.311c1.579 0.961 3.38 1.458 5.199 1.458 0.79 0 1.583-0.094 2.363-0.283 2.577-0.627 4.8-2.252 6.179-4.517l152.23-250.08c1.881-3.091 1.947-6.957 0.17-10.109zm-422.6 445.79 151.5-246.07 27.739 16.885 14.497 59.602-193.74 169.59zm258.32-204.54-113.03-68.805 98.947-157.14 151.84-0.346-137.75 226.3z"/>
			<path d="m236.3 229.74c-4.618-3.027-10.818-1.736-13.845 2.882l-44.388 67.732c-3.028 4.619-1.737 10.818 2.882 13.845 1.69 1.108 3.592 1.637 5.472 1.637 3.258 0 6.453-1.59 8.373-4.519l44.388-67.732c3.028-4.619 1.737-10.818-2.882-13.845z"/>
			<path d="m270.52 137.12c-4.695-2.911-10.858-1.466-13.77 3.227l-13.397 21.599c-2.911 4.693-1.466 10.858 3.227 13.769 1.641 1.018 3.463 1.503 5.262 1.503 3.345 0 6.614-1.678 8.508-4.73l13.397-21.599c2.911-4.693 1.466-10.858-3.227-13.769z"/>
			<path d="m299.36 90.464c-4.717-2.872-10.869-1.374-13.741 3.342l-9.118 14.979c-2.871 4.718-1.375 10.87 3.343 13.742 1.624 0.988 3.418 1.459 5.189 1.459 3.375 0 6.669-1.708 8.552-4.801l9.118-14.979c2.871-4.718 1.375-10.87-3.343-13.742z"/>
		</g>
	</g>
</g>















</svg>
