<svg enable-background="new 0 0 1000 1000" version="1.1" viewBox="0 0 1e3 1e3" xmlns="http://www.w3.org/2000/svg">
	<g fill="#fff">
		<g transform="translate(0 512) scale(.1 -.1)" fill="#fff">
			<path d="m3189.5 3502.1c-401.1-834.7-731.1-1525.6-735-1535.1-3.8-9.6 218.8-19.2 520-21.1l527.7-5.8-631.3-1017-629.4-1017.1 525.8-5.7c289.8-1.9 527.7-9.6 527.7-15.4 0-3.8-284-917.3-631.3-2028.3-347.3-1111.1-675.5-2156.9-729.2-2325.8-51.8-168.9-94-308.9-90.2-310.9 1.9-3.8 1011.3 1047.8 2243.2 2335.4l2239.4 2341.2h-767.6c-470.1 0-765.7 7.7-758 17.3 5.8 9.6 533.5 470.1 1174.4 1022.8l1164.8 1003.6-1374 19.2 151.6 191.9c82.5 105.5 616 782.9 1184 1506.4 568 723.4 1042 1326 1053.5 1339.4 13.4 17.3-410.6 23-2110.8 23h-2128.1l-727.2-1518z" fill="#fff"/>
		</g>
	</g>
</svg>
