<svg enable-background="new 0 0 490.8 490.8" version="1.1" viewBox="0 0 490.8 490.8" xmlns="http://www.w3.org/2000/svg">
	<g fill="#fff">
		<g fill="#fff">
			<path d="m364.8 299.55c46.3-75.8 36.9-176.3-28.6-241.9-76.8-76.8-201.8-76.8-278.6 0s-76.8 201.8 0 278.5c65.5 65.5 166 74.9 241.9 28.6l112.5 112.5c18 18 47.3 18 65.3 0s18-47.3 0-65.3l-112.5-112.4zm-69.3-4c-54.4 54.4-142.8 54.4-197.1 0-54.4-54.4-54.4-142.8 0-197.1 54.4-54.4 142.8-54.4 197.1 0 54.3 54.3 54.3 142.7 0 197.1zm-75.5-123.6h59.4v45.3h-59.4v59.4h-45.3v-59.4h-59.3v-45.3h59.4v-59.4h45.3v59.4h-0.1z" fill="#fff"/>
		</g>
	</g>
</svg>
